<svg width="22" height="22" viewBox="0 0 22 22" fill="none" xmlns="http://www.w3.org/2000/svg">
<path d="M11.8125 10.6708V6.39582C11.8125 6.16563 11.7346 5.97267 11.5788 5.81694C11.423 5.66121 11.23 5.58335 10.9997 5.58335C10.7693 5.58335 10.5764 5.66121 10.4209 5.81694C10.2653 5.97267 10.1875 6.16563 10.1875 6.39582V10.9209C10.1875 11.0484 10.2111 11.1719 10.2584 11.2915C10.3056 11.4111 10.3799 11.5215 10.4813 11.6229L14.1917 15.3334C14.3417 15.4833 14.5302 15.5601 14.7573 15.5636C14.9844 15.567 15.1764 15.4903 15.3334 15.3334C15.4903 15.1764 15.5688 14.9861 15.5688 14.7625C15.5688 14.5389 15.4903 14.3486 15.3334 14.1917L11.8125 10.6708ZM11.0018 21.2917C9.5784 21.2917 8.24045 21.0215 6.98797 20.4813C5.73547 19.9411 4.64598 19.208 3.7195 18.2819C2.793 17.3558 2.05952 16.2668 1.51906 15.0148C0.978603 13.7629 0.708374 12.4253 0.708374 11.0018C0.708374 9.5784 0.978485 8.24045 1.51871 6.98797C2.05893 5.73547 2.79208 4.64599 3.71815 3.7195C4.64423 2.793 5.73324 2.05952 6.98518 1.51906C8.2371 0.978604 9.57477 0.708374 10.9982 0.708374C12.4216 0.708374 13.7596 0.978486 15.0121 1.51871C16.2646 2.05893 17.354 2.79208 18.2805 3.71815C19.207 4.64423 19.9405 5.73325 20.481 6.98518C21.0214 8.2371 21.2917 9.57477 21.2917 10.9982C21.2917 12.4216 21.0215 13.7596 20.4813 15.0121C19.9411 16.2646 19.208 17.354 18.2819 18.2805C17.3558 19.207 16.2668 19.9405 15.0148 20.481C13.7629 21.0214 12.4253 21.2917 11.0018 21.2917ZM11 19.6667C13.4014 19.6667 15.4462 18.8226 17.1344 17.1344C18.8226 15.4462 19.6667 13.4014 19.6667 11C19.6667 8.59863 18.8226 6.55383 17.1344 4.86564C15.4462 3.17745 13.4014 2.33335 11 2.33335C8.59863 2.33335 6.55383 3.17745 4.86564 4.86564C3.17744 6.55383 2.33335 8.59863 2.33335 11C2.33335 13.4014 3.17744 15.4462 4.86564 17.1344C6.55383 18.8226 8.59863 19.6667 11 19.6667Z" fill="#909BAA"/>
</svg>
