<svg width="20" height="20" viewBox="0 0 20 20" fill="none" xmlns="http://www.w3.org/2000/svg">
<mask id="mask0_11963_74462" style="mask-type:alpha" maskUnits="userSpaceOnUse" x="0" y="0" width="20" height="20">
<rect width="20" height="20" fill="#D9D9D9"/>
</mask>
<g mask="url(#mask0_11963_74462)">
<path d="M7.49563 16C7.08188 16 6.72917 15.8527 6.4375 15.5581C6.14583 15.2635 6 14.9094 6 14.4956C6 14.0819 6.14729 13.7292 6.44187 13.4375C6.73646 13.1458 7.09062 13 7.50437 13C7.91812 13 8.27083 13.1473 8.5625 13.4419C8.85417 13.7365 9 14.0906 9 14.5044C9 14.9181 8.85271 15.2708 8.55813 15.5625C8.26354 15.8542 7.90938 16 7.49563 16ZM12.4956 16C12.0819 16 11.7292 15.8527 11.4375 15.5581C11.1458 15.2635 11 14.9094 11 14.4956C11 14.0819 11.1473 13.7292 11.4419 13.4375C11.7365 13.1458 12.0906 13 12.5044 13C12.9181 13 13.2708 13.1473 13.5625 13.4419C13.8542 13.7365 14 14.0906 14 14.5044C14 14.9181 13.8527 15.2708 13.5581 15.5625C13.2635 15.8542 12.9094 16 12.4956 16ZM7.49563 11.5C7.08188 11.5 6.72917 11.3527 6.4375 11.0581C6.14583 10.7635 6 10.4094 6 9.99563C6 9.58188 6.14729 9.22917 6.44187 8.9375C6.73646 8.64583 7.09062 8.5 7.50437 8.5C7.91812 8.5 8.27083 8.64729 8.5625 8.94188C8.85417 9.23646 9 9.59062 9 10.0044C9 10.4181 8.85271 10.7708 8.55813 11.0625C8.26354 11.3542 7.90938 11.5 7.49563 11.5ZM12.4956 11.5C12.0819 11.5 11.7292 11.3527 11.4375 11.0581C11.1458 10.7635 11 10.4094 11 9.99563C11 9.58188 11.1473 9.22917 11.4419 8.9375C11.7365 8.64583 12.0906 8.5 12.5044 8.5C12.9181 8.5 13.2708 8.64729 13.5625 8.94188C13.8542 9.23646 14 9.59062 14 10.0044C14 10.4181 13.8527 10.7708 13.5581 11.0625C13.2635 11.3542 12.9094 11.5 12.4956 11.5ZM7.49563 7C7.08188 7 6.72917 6.85271 6.4375 6.55812C6.14583 6.26354 6 5.90937 6 5.49562C6 5.08187 6.14729 4.72917 6.44187 4.4375C6.73646 4.14583 7.09062 4 7.50437 4C7.91812 4 8.27083 4.14729 8.5625 4.44188C8.85417 4.73646 9 5.09063 9 5.50438C9 5.91813 8.85271 6.27083 8.55813 6.5625C8.26354 6.85417 7.90938 7 7.49563 7ZM12.4956 7C12.0819 7 11.7292 6.85271 11.4375 6.55812C11.1458 6.26354 11 5.90937 11 5.49562C11 5.08187 11.1473 4.72917 11.4419 4.4375C11.7365 4.14583 12.0906 4 12.5044 4C12.9181 4 13.2708 4.14729 13.5625 4.44188C13.8542 4.73646 14 5.09063 14 5.50438C14 5.91813 13.8527 6.27083 13.5581 6.5625C13.2635 6.85417 12.9094 7 12.4956 7Z" fill="#8E969C"/>
</g>
</svg>
