<svg height="85.333336" viewBox="0 0 85.333336 85.333336" width="85.333336" xmlns="http://www.w3.org/2000/svg"><g transform="matrix(.13333333 0 0 -.13333333 0 85.333333)"><path d="m640 320c0-176.738-143.262-320-320-320s-320 143.262-320 320 143.262 320 320 320 320-143.262 320-320" fill="#608AFF"/><g fill="#f5f5e6"><path d="m125 292.754c-6.887-3.977-11.914-10.527-13.977-18.211-2.058-7.688-.972-15.871 3-22.766l.008-.019c8.282-14.336 26.614-19.246 40.949-10.965l164.571 95.02-30 51.953z"/><path d="m272.227 377.766 5-8.645-155.879-90.012 4.597 38.196c.344 2.883 1.926 5.461 4.328 7.09 2.403 1.621 5.391 2.121 8.184 1.375l29.856-7.997 8.386 31.329c.684 2.558 2.364 4.746 4.656 6.074 2.297 1.316 5.032 1.679 7.59.996l31.328-8.399 8.387 31.321c.688 2.554 2.363 4.746 4.66 6.074 2.293 1.316 5.032 1.68 7.586.992z"/><path d="m397.5 380.801c15.996-4.278 32.449 5.222 36.738 21.242 4.285 15.984-5.222 32.422-21.211 36.727-16.015 4.265-32.453-5.215-36.738-21.204-4.285-16.011 5.195-32.461 21.211-36.765zm-73.672 107.59c47.844 27.617 108.992 11.226 136.61-36.606 27.621-47.82 11.242-108.98-36.598-136.597-47.824-27.622-108.996-11.235-136.594 36.597-27.617 47.832-11.23 108.996 36.582 136.606"/></g><path d="m298.645 127.766c-4.29-16.008 5.203-32.4535 21.21-36.7426 7.684-2.0703 15.875-.9843 22.762 2.9922 6.887 3.9727 11.914 10.5274 13.977 18.2034l49.176 183.551-57.95 15.531z" fill="#f5bb3d"/><path d="m342.617 291.973 9.649-2.571-46.582-173.875-23.743 30.254c-1.796 2.285-2.507 5.227-1.953 8.074.547 2.844 2.309 5.317 4.817 6.758l26.758 15.461-16.211 28.098c-2.762 4.781-1.122 10.894 3.664 13.66l28.074 16.199-16.211 28.071c-1.328 2.293-1.68 5.027-.996 7.586.683 2.57 2.363 4.746 4.656 6.074z" fill="#f5bb3d"/><path d="m397.5 380.801c15.996-4.278 32.449 5.222 36.738 21.242 4.285 15.984-5.222 32.422-21.211 36.727-16.015 4.265-32.453-5.215-36.738-21.204-4.285-16.011 5.195-32.461 21.211-36.765zm-96.602 25.871c14.297 53.355 69.129 85.016 122.481 70.723 53.351-14.29 85-69.102 70.703-122.473-14.285-53.34-69.121-85.02-122.473-70.703-53.347 14.277-85.007 69.109-70.711 122.453" fill="#f5bb3d"/><path d="m413.816 414.98-.132.247c-2.278 3.945-6.489 6.375-11.047 6.375-2.293 0-4.485-.872-6.145-2.442-3.953-3.73-11.336-5.84-20.906-5.918-.195 0-.359-.039-.559-.039-17.808 0-41.023 6.824-63.535 18.477-2.84 1.472-5.679 3-8.496 4.621-6.394 3.687-12.305 7.578-17.82 11.57-32.969 23.848-49.707 51.477-42.625 63.731 3.086 5.332 11.621 8.398 23.426 8.398 20.058 0 46.984-8.633 72.019-23.098.649-.371 1.242-.757 1.887-1.14 9.101 3.301 18.457 5.183 27.812 5.754-6.125 4.402-12.695 8.672-19.699 12.714-28.355 16.375-58.25 25.77-82.019 25.77-24.903 0-35.899-10.012-40.743-18.398-14.121-24.454 8.164-62.618 52.364-92.864 4.89-3.355 9.98-6.636 15.398-9.761 3.352-1.934 6.723-3.75 10.102-5.493 25.23-12.957 50.957-20.281 71.929-20.281 1.86 0 3.489.156 5.2.266 17.918 1.121 27.769 7.781 33.093 14.527 1.582 2.004 1.778 4.777.496 6.984" fill="#4f6366"/></g></svg>