<svg viewBox="0 0 64 64" xmlns="http://www.w3.org/2000/svg"><path d="m20.5 59.7 7-7.2c-2.5-.5-4.8-1.5-6.9-2.9zm23-55.4-7 7.2c2.5.5 4.8 1.5 6.9 2.9zm-39.2 39.2 10.1-.1c-1.4-2.1-2.4-4.4-2.9-6.9zm55.4-23-10.1.1c1.3 2.1 2.3 4.4 2.9 6.9zm-55.4 0 7.2 7c.5-2.5 1.5-4.8 2.9-6.9zm55.4 23-7.2-7c-.5 2.5-1.5 4.8-2.9 6.9zm-39.2-39.2.1 10.1c2.1-1.3 4.4-2.3 6.9-2.9zm23 55.4-.1-10.1c-2.1 1.4-4.4 2.4-6.9 2.9z" fill="#ffe62e"/><g fill="#ffce31"><path d="m14.8 44-4 9.3 9.3-4c-2.1-1.5-3.9-3.3-5.3-5.3m34.4-24 4-9.3-9.2 4c2 1.5 3.8 3.3 5.2 5.3m-37.8 8.3-9.4 3.7 9.4 3.7c-.3-1.2-.4-2.4-.4-3.7s.1-2.5.4-3.7m41.2 7.4 9.4-3.7-9.4-3.7c.2 1.2.4 2.5.4 3.7 0 1.3-.1 2.5-.4 3.7m-32.6-20.9-9.3-4 4 9.3c1.5-2.1 3.3-3.9 5.3-5.3m24 34.4 9.3 4-4-9.3c-1.5 2.1-3.3 3.9-5.3 5.3m-8.3-37.8-3.7-9.4-3.7 9.4c1.2-.2 2.5-.4 3.7-.4s2.5.1 3.7.4m-7.4 41.2 3.7 9.4 3.7-9.4c-1.2.3-2.4.4-3.7.4s-2.5-.1-3.7-.4"/><circle cx="32" cy="32" r="19"/></g></svg>