<svg width="22" height="16" viewBox="0 0 22 16" fill="none" xmlns="http://www.w3.org/2000/svg">
<path d="M14.0015 15.5C11.9082 15.5 10.1346 14.7735 8.68075 13.3207C7.2269 11.8679 6.49998 10.0948 6.49998 8.0015C6.49998 5.90818 7.22639 4.13461 8.67922 2.68078C10.132 1.22693 11.9051 0.5 13.9984 0.5C16.0917 0.5 17.8653 1.22642 19.3192 2.67925C20.773 4.13207 21.4999 5.90513 21.4999 7.99845C21.4999 10.0918 20.7735 11.8653 19.3207 13.3192C17.8679 14.773 16.0948 15.5 14.0015 15.5ZM4.96152 14.8653C3.59997 14.2923 2.516 13.3846 1.7096 12.1423C0.9032 10.9 0.5 9.51921 0.5 7.99998C0.5 6.48074 0.9032 5.09998 1.7096 3.85768C2.516 2.61538 3.59997 1.70769 4.96152 1.13463C5.22818 1.01283 5.46791 1.02464 5.68072 1.17008C5.89354 1.31551 5.99995 1.55263 5.99995 1.88145C5.99995 2.0079 5.95847 2.12999 5.8755 2.24772C5.79253 2.36546 5.68723 2.45531 5.55958 2.51728C4.47111 2.98138 3.60573 3.70894 2.96343 4.69998C2.32111 5.69099 1.99995 6.79099 1.99995 7.99998C1.99995 9.20896 2.32111 10.309 2.96343 11.3C3.60573 12.291 4.47111 13.0186 5.55958 13.4827C5.68723 13.5462 5.79253 13.6352 5.8755 13.7495C5.95847 13.8639 5.99995 13.991 5.99995 14.1307C5.99995 14.4384 5.89354 14.6682 5.68072 14.8202C5.46791 14.9721 5.22818 14.9871 4.96152 14.8653ZM13.9999 14C15.6666 14 17.0833 13.4166 18.25 12.25C19.4166 11.0833 20 9.66664 20 7.99998C20 6.33331 19.4166 4.91664 18.25 3.74998C17.0833 2.58331 15.6666 1.99998 13.9999 1.99998C12.3333 1.99998 10.9166 2.58331 9.74995 3.74998C8.58328 4.91664 7.99995 6.33331 7.99995 7.99998C7.99995 9.66664 8.58328 11.0833 9.74995 12.25C10.9166 13.4166 12.3333 14 13.9999 14Z" fill="#8E969C"/>
</svg>
